<?xml version="1.0" encoding="utf-8"?>
<!-- Generator: Adobe Illustrator 22.1.0, SVG Export Plug-In . SVG Version: 6.00 Build 0)  -->
<svg version="1.1" id="Livello_1" xmlns="http://www.w3.org/2000/svg" xmlns:xlink="http://www.w3.org/1999/xlink" x="0px" y="0px"
	 viewBox="0 0 193.9 29.1" style="enable-background:new 0 0 193.9 29.1;" xml:space="preserve">
<style type="text/css">
	.st0{fill:url(#SVGID_1_);}
</style>
<g>
	<g>
		<path d="M54.8,12.3c-0.1,0.1-0.2,0.1-0.3,0.1H54c-0.1,0-0.2,0-0.3-0.1c-0.1-0.1-0.2-0.2-0.2-0.3c-0.1-0.7-0.5-1.3-1.1-1.7
			c-0.7-0.5-1.5-0.7-2.5-0.7c-1.1,0-1.9,0.2-2.6,0.6c-0.6,0.4-1,1-1,1.9c0,0.5,0.1,1,0.4,1.4c0.3,0.4,0.7,0.7,1.3,0.9
			c0.6,0.3,1.4,0.6,2.5,0.9c1.1,0.4,2,0.7,2.7,1c0.6,0.3,1.1,0.7,1.5,1.2c0.3,0.5,0.5,1.1,0.5,1.8c0,1.3-0.5,2.2-1.4,2.9
			s-2.2,1.1-3.9,1.1c-1.1,0-2-0.2-2.8-0.5c-0.8-0.4-1.4-0.8-1.8-1.4s-0.7-1.2-0.7-1.8c0-0.1,0-0.2,0.1-0.3s0.2-0.1,0.3-0.1h0.4
			c0.3,0,0.4,0.1,0.5,0.4c0.1,0.7,0.5,1.3,1.2,1.8c0.7,0.5,1.6,0.8,2.9,0.8c1.3,0,2.3-0.2,3-0.7s1-1.2,1-2c0-0.5-0.2-1-0.5-1.3
			s-0.8-0.6-1.4-0.9c-0.6-0.3-1.5-0.6-2.7-1c-1.1-0.3-1.9-0.7-2.5-1c-0.6-0.3-1.1-0.7-1.4-1.2c-0.3-0.5-0.4-1.1-0.4-1.9
			c0-0.7,0.2-1.4,0.6-1.9s0.9-1,1.7-1.4c0.7-0.3,1.6-0.5,2.6-0.5c1,0,1.9,0.2,2.7,0.6c0.7,0.4,1.3,0.8,1.7,1.4
			c0.4,0.6,0.6,1.1,0.6,1.7C54.9,12.1,54.9,12.2,54.8,12.3z"/>
		<path d="M67.2,8.7c0.1,0.1,0.1,0.2,0.1,0.4v0.3c0,0.1,0,0.3-0.1,0.3c-0.1,0.1-0.2,0.1-0.3,0.1h-4.1v13c0,0.1,0,0.3-0.1,0.3
			s-0.2,0.1-0.3,0.1h-0.4c-0.1,0-0.3,0-0.3-0.1s-0.1-0.2-0.1-0.3v-13h-4.2c-0.1,0-0.3,0-0.3-0.1c-0.1-0.1-0.1-0.2-0.1-0.3V9
			c0-0.1,0-0.3,0.1-0.3c0.1-0.1,0.2-0.1,0.3-0.1h9.6C67,8.5,67.1,8.6,67.2,8.7z"/>
		<path d="M80,15.9c0,0.3,0,0.9,0,1.8c-0.1,3.9-1.9,5.8-5.5,5.8s-5.4-1.9-5.5-5.8c0-0.4,0-1,0-1.8s0-1.3,0-1.8
			c0.1-1.9,0.6-3.3,1.6-4.3c1-1,2.3-1.5,4-1.5s3,0.5,4,1.5c1,1,1.5,2.4,1.6,4.3C80,14.9,80,15.5,80,15.9z M70.2,15.9
			c0,0.7,0,1.2,0,1.7c0.1,1.6,0.5,2.7,1.2,3.5c0.7,0.8,1.8,1.1,3,1.1s2.3-0.4,3-1.1c0.7-0.8,1.2-1.9,1.2-3.5c0-0.8,0-1.4,0-1.7
			s0-0.8,0-1.7c-0.1-1.6-0.5-2.7-1.2-3.5c-0.8-0.8-1.8-1.1-3-1.1s-2.2,0.4-3,1.1c-0.8,0.8-1.2,1.9-1.2,3.5
			C70.2,14.6,70.2,15.2,70.2,15.9z"/>
		<path d="M92.3,9.6c0.9,0.7,1.3,1.8,1.3,3.2c0,1.1-0.3,2-0.8,2.7c-0.5,0.7-1.3,1.1-2.3,1.4l3.4,5.7c0,0.1,0.1,0.2,0.1,0.2
			c0,0.1,0,0.2-0.1,0.3s-0.2,0.1-0.3,0.1h-0.3c-0.2,0-0.4,0-0.5-0.1c-0.1-0.1-0.2-0.2-0.3-0.4L89,17h-4.3v5.7c0,0.1,0,0.3-0.1,0.3
			s-0.2,0.1-0.3,0.1h-0.4c-0.1,0-0.3,0-0.3-0.1s-0.1-0.2-0.1-0.3V9c0-0.1,0-0.3,0.1-0.3c0.1-0.1,0.2-0.1,0.3-0.1h4.9
			C90.2,8.5,91.4,8.9,92.3,9.6z M88.6,15.7c1.2,0,2.1-0.2,2.7-0.7c0.6-0.5,0.9-1.2,0.9-2.2c0-1-0.3-1.7-0.9-2.2
			c-0.6-0.5-1.5-0.7-2.7-0.7h-3.9v6H88.6z"/>
		<path d="M97.9,19.5l-1.3,3.4c0,0.1-0.1,0.1-0.2,0.2c-0.1,0.1-0.2,0.1-0.3,0.1h-0.4c-0.1,0-0.2,0-0.3-0.1s-0.1-0.2-0.1-0.3l0-0.2
			l5.3-13.6c0.1-0.3,0.3-0.4,0.6-0.4h0.7c0.3,0,0.5,0.1,0.6,0.4l5.3,13.6l0,0.2c0,0.1,0,0.2-0.1,0.3s-0.2,0.1-0.3,0.1h-0.4
			c-0.1,0-0.2,0-0.3-0.1c-0.1-0.1-0.1-0.1-0.2-0.2l-1.3-3.4H97.9z M104.9,18.3l-3.2-8.3l-3.2,8.3H104.9z"/>
		<path d="M110.9,15.9c0,0.8,0,1.5,0,1.9c0.1,1.5,0.5,2.6,1.2,3.3s1.8,1.1,3.1,1.1c1.3,0,2.3-0.4,3.1-1.1s1.2-1.8,1.2-3.3v-1.1h-3.6
			c-0.1,0-0.3,0-0.3-0.1s-0.1-0.2-0.1-0.3v-0.3c0-0.1,0-0.3,0.1-0.3c0.1-0.1,0.2-0.1,0.3-0.1h4.5c0.2,0,0.3,0,0.4,0.1
			s0.1,0.2,0.1,0.4v1.8c0,1.1-0.2,2.1-0.7,3c-0.4,0.9-1.1,1.5-2,2c-0.9,0.5-1.9,0.7-3,0.7c-1.7,0-3.1-0.5-4.1-1.5s-1.5-2.4-1.5-4
			c0-0.4,0-1.1,0-2s0-1.6,0-2c0.1-1.7,0.6-3,1.5-4s2.3-1.5,4.1-1.5c1.2,0,2.2,0.2,3,0.7c0.8,0.4,1.4,1,1.8,1.6s0.6,1.2,0.6,1.6v0
			c0,0.1,0,0.2-0.1,0.3c-0.1,0.1-0.2,0.1-0.3,0.1h-0.5c-0.1,0-0.2,0-0.3-0.1s-0.1-0.2-0.2-0.3c-0.2-0.7-0.7-1.4-1.4-1.9
			c-0.7-0.5-1.6-0.8-2.7-0.8c-1.3,0-2.3,0.4-3.1,1.1s-1.2,1.8-1.2,3.3C110.9,14.4,110.9,15,110.9,15.9z"/>
		<path d="M133.3,22.1c0.1,0.1,0.1,0.2,0.1,0.4v0.3c0,0.1,0,0.3-0.1,0.3s-0.2,0.1-0.3,0.1h-8.3c-0.1,0-0.3,0-0.3-0.1
			s-0.1-0.2-0.1-0.3V9c0-0.1,0-0.3,0.1-0.3c0.1-0.1,0.2-0.1,0.3-0.1h8.2c0.2,0,0.3,0,0.4,0.1c0.1,0.1,0.1,0.2,0.1,0.4v0.3
			c0,0.1,0,0.3-0.1,0.3c-0.1,0.1-0.2,0.1-0.3,0.1h-7.3v5.3h6.9c0.2,0,0.3,0,0.4,0.1s0.1,0.2,0.1,0.4v0.3c0,0.1,0,0.3-0.1,0.3
			c-0.1,0.1-0.2,0.1-0.3,0.1h-6.9V22h7.5C133.1,22,133.2,22,133.3,22.1z"/>
		<path d="M147.3,15.8c0,0.7,0,1.3,0,1.7c0,1.3-0.2,2.4-0.6,3.2c-0.4,0.8-0.9,1.4-1.8,1.8c-0.8,0.4-2,0.6-3.4,0.6H137
			c-0.1,0-0.3,0-0.3-0.1s-0.1-0.2-0.1-0.3V9c0-0.1,0-0.3,0.1-0.3c0.1-0.1,0.2-0.1,0.3-0.1h4.5c1.5,0,2.6,0.2,3.5,0.6
			s1.4,1.1,1.8,1.9s0.5,1.9,0.6,3.1C147.3,14.6,147.3,15.2,147.3,15.8z M137.9,9.8V22h3.6c1.1,0,2-0.1,2.6-0.5
			c0.6-0.3,1.1-0.8,1.4-1.4c0.3-0.7,0.4-1.5,0.5-2.7c0-0.4,0-0.9,0-1.6c0-0.6,0-1.1,0-1.6c0-1.6-0.4-2.7-1.1-3.4
			c-0.7-0.7-1.9-1.1-3.5-1.1H137.9z"/>
		<path d="M161.3,15.9c0,0.3,0,0.9,0,1.8c-0.1,3.9-1.9,5.8-5.5,5.8s-5.4-1.9-5.5-5.8c0-0.4,0-1,0-1.8s0-1.3,0-1.8
			c0.1-1.9,0.6-3.3,1.6-4.3c1-1,2.3-1.5,4-1.5s3,0.5,4,1.5c1,1,1.5,2.4,1.6,4.3C161.3,14.9,161.3,15.5,161.3,15.9z M151.5,15.9
			c0,0.7,0,1.2,0,1.7c0.1,1.6,0.5,2.7,1.2,3.5c0.7,0.8,1.8,1.1,3,1.1s2.3-0.4,3-1.1c0.7-0.8,1.2-1.9,1.2-3.5c0-0.8,0-1.4,0-1.7
			s0-0.8,0-1.7c-0.1-1.6-0.5-2.7-1.2-3.5c-0.8-0.8-1.8-1.1-3-1.1s-2.2,0.4-3,1.1c-0.8,0.8-1.2,1.9-1.2,3.5
			C151.5,14.6,151.5,15.2,151.5,15.9z"/>
		<path d="M165.9,22.7c0,0.1,0,0.3-0.1,0.3s-0.2,0.1-0.3,0.1h-0.4c-0.1,0-0.3,0-0.3-0.1s-0.1-0.2-0.1-0.3V9c0-0.1,0-0.3,0.1-0.3
			c0.1-0.1,0.2-0.1,0.3-0.1h0.4c0.2,0,0.3,0.1,0.4,0.3l7.7,11.8V9c0-0.1,0-0.3,0.1-0.3c0.1-0.1,0.2-0.1,0.3-0.1h0.4
			c0.2,0,0.3,0,0.4,0.1C175,8.7,175,8.9,175,9v13.7c0,0.1,0,0.3-0.1,0.3c-0.1,0.1-0.2,0.1-0.3,0.1h-0.5c-0.2,0-0.3-0.1-0.4-0.3
			l-7.7-11.8V22.7z"/>
		<path d="M188.1,22.1c0.1,0.1,0.1,0.2,0.1,0.4v0.3c0,0.1,0,0.3-0.1,0.3s-0.2,0.1-0.3,0.1h-8.3c-0.1,0-0.3,0-0.3-0.1
			s-0.1-0.2-0.1-0.3V9c0-0.1,0-0.3,0.1-0.3c0.1-0.1,0.2-0.1,0.3-0.1h8.2c0.2,0,0.3,0,0.4,0.1c0.1,0.1,0.1,0.2,0.1,0.4v0.3
			c0,0.1,0,0.3-0.1,0.3c-0.1,0.1-0.2,0.1-0.3,0.1h-7.3v5.3h6.9c0.2,0,0.3,0,0.4,0.1s0.1,0.2,0.1,0.4v0.3c0,0.1,0,0.3-0.1,0.3
			c-0.1,0.1-0.2,0.1-0.3,0.1h-6.9V22h7.5C187.9,22,188,22,188.1,22.1z"/>
	</g>
	<g>
		<linearGradient id="SVGID_1_" gradientUnits="userSpaceOnUse" x1="3.8197" y1="13.093" x2="35.3572" y2="15.9052">
			<stop  offset="0" style="stop-color:#5B98B6"/>
			<stop  offset="1" style="stop-color:#006287"/>
		</linearGradient>
		<path class="st0" d="M35.8,12.5c-0.4-4.3-4.1-7.6-8.5-7.7c-4.6,0-9.2,0-13.9,0c-1.8,0-3.5,0.4-5,1.5C5.9,8.2,5,12.2,8.8,14.2
			c1.5,0.8,3.2,1.4,4.8,2.1c1.1,0.5,2.2,0.9,3.3,1.5c0.7,0.4,0.8,1,0.3,1.6c-0.2,0.3-0.5,0.5-0.8,0.7c-1.8,1.2-4.7,1.2-6.4,0
			c-0.7-0.5-1.2-1.1-1.1-2.1c0-0.3,0-0.7,0-1.1c-1.1,0-2.1,0-3.1,0c-0.4,2.8,0.6,4.8,3,6.1c1.9,1,3.9,1.2,6,0.9
			c1.9-0.3,3.5-1.1,4.8-2.5c1.7-2,1.5-4.5-0.6-6.2c-0.6-0.5-1.3-0.9-2-1.2c-1.1-0.5-2.3-0.9-3.4-1.4c-1.2-0.5-2.3-0.9-3.4-1.5
			c-0.9-0.5-1-1.2-0.3-2c0.4-0.4,1-0.8,1.5-1C12.1,8.1,12.8,8,13.6,8c4.5,0,9,0,13.5,0c2.4,0,4.4,1.4,5.2,3.7c0,0.1,0,0.1,0.1,0.2
			c-3.7-0.1-5.4-0.9-5.4-1.6c0-0.3-0.3-0.6-0.6-0.6c-0.3,0-0.6,0.3-0.6,0.6c0,2.1,3.6,2.7,6.9,2.8c0.1,0.5,0.1,1,0.1,1.5
			c-4-0.1-5.8-0.9-5.8-1.6c0-0.3-0.3-0.6-0.6-0.6c-0.3,0-0.6,0.3-0.6,0.6c0,2.1,3.6,2.7,6.9,2.8c0,0.1,0,0.2,0,0.3
			c0,0.4-0.1,0.8-0.2,1.1c-3.8-0.1-5.5-0.9-5.5-1.6c0-0.3-0.3-0.6-0.6-0.6c-0.3,0-0.6,0.3-0.6,0.6c0,2,3,2.6,6.1,2.8
			c-0.1,0.2-0.3,0.4-0.4,0.6c-1.7,2.2-4.1,2.2-6.7,2c0-2.2,0-4.4,0-6.7c-1.1,0-2.1,0-3.1,0c0,2.9,0,5.7,0,8.5c0,0.8,0.7,1.4,1.6,1.4
			c1.3,0,2.7,0,4,0c3.5,0,6-1.7,7.6-4.7C36.1,17.3,36,14.9,35.8,12.5z"/>
	</g>
</g>
</svg>
